/* XPM */
static char *cat_down_grass1703260289[] = {
/* columns rows colors chars-per-pixel */
"32 32 13 1 ",
"  c #713F14",
". c #3E734E",
"X c #864B18",
"o c #88561C",
"O c #88601F",
"+ c #DF7129",
"@ c #FF3B68",
"# c #7AB055",
"$ c #4D9262",
"% c #EB832B",
"& c #EF9631",
"* c #EFA837",
"= c #187DCD",
/* pixels */
"$$$$$$$$$$$$$$$$$$$$$$$$$$$$$$$$",
"$$$$$$$$$$$$$$$$$$$$$$.$$$$$$$$$",
"$$$$$$$$$$$$$$O$$$$$$.$.$$$$$$$$",
"$$$$$$$$$$$$$O*O$$$$$$.$$$$$$$$$",
"$$$$$$$$$$$$$O+O$$$$$$$$$$$$$$$$",
"$$$$$$$$$$$$$O*o$$$$$$$$$$$$$$$$",
"$$$$$$$$$$$$$o+o$#$$$$$$$$$$$$$$",
"$$$$$$$$$$$$$o&o$##$$$$$$$$$$$$$",
"$$$$$$#$$$$$$X+%o##$$#$$$$$$$$$$",
"$$$$$$#$$$$OX&***X#O##$$$$$$$$$$",
"$$$$$$#$#$O*O&+++&O*O.$$$$$$$$$$",
"$$$$$$#$#$O**O%%%O**O$$$$$$$$$$$",
"$$$$$$$$#$O**OOOOO**O$$$$$$$$$$$",
"$$$$$$$$$$O*********O$$$$$$$$$$$",
"$$$$$$$$$$O**=***=**o$$$$$$$$$$$",
"#$$$$$$$$$o**=***=**o$$$$$$$$$$$",
"$#$$$$$$$$o&***@***&X$$$$$$$$$$#",
"#$$$$$$$$$$o&&***&&o$$$$$$$$$$$$",
"$$$$$$$$$$$ XXXXXXX $$$$$$$$$$$$",
"$$$$$$$$$$$X%%%%%%%X$$$$$$$$$$$$",
"$$$$$$$$$$$o&&&&&&&o$$$$$$$$$$$$",
"$$$$$$$$$$.$o*ooo*o$$$$$$$$$$$$$",
"$$$$$$$$$.$.o+o$o*o$$$$$$$$$$$$$",
"$$$$$$$$$$.$o&o$o*o$$$$$$$$$$$$$",
"$$$$$$$$$$$$$oo$o+o$$$$$$#$$$$$$",
"$$$$$$$$$$$$$$$$o&o$$$$#$#$$$$$$",
"$$$$$$$$$$$$$$$$oo$$$$$#$#$$$$$$",
"$$$$$$$$$$$$$$$$$$$$$$$#$$$$$$$$",
"$$$$$$$$$$$$$$$$$$$$$$$$$$$$$$$$",
"$$$$$$$$$$$$$#$$$$$$$$$$$$$$$$$$",
"$$$$$$$$$$$$#$#$$$$$$$$$$$$$$$$$",
"$$$$$$$$$$$$$#$$$$$$$$$$$$$$$$$$"
};
